<?xml version="1.0" encoding="UTF-8"?>
<svg xmlns="http://www.w3.org/2000/svg" xmlns:xlink="http://www.w3.org/1999/xlink"
     width="1000" height="1000" viewBox="-500.0 -500.0 1000 1000">
<defs>
</defs>
<rect x="-500.0" y="-500.0" width="1000" height="1000" fill="White" />
<circle cx="392.795" cy="-328.831" r="18.468" fill="Black" stroke="Black" />
<circle cx="-307.826" cy="377.623" r="19.829" fill="Black" stroke="Black" />
<circle cx="-442.617" cy="-154.891" r="11.264" fill="Black" stroke="Black" />
<circle cx="432.417" cy="268.197" r="24.37" fill="Black" stroke="Black" />
<circle cx="63.112" cy="63.218" r="9.622" fill="Black" stroke="Black" />
<circle cx="145.009" cy="-244.769" r="25.481" fill="Black" stroke="Black" />
<circle cx="-182.475" cy="-481.847" r="16.616" fill="Black" stroke="Black" />
<circle cx="271.657" cy="16.729" r="11.598" fill="Black" stroke="Black" />
<circle cx="107.669" cy="336.857" r="19.407" fill="Black" stroke="Black" />
<circle cx="-262.21" cy="83.341" r="12.495" fill="Black" stroke="Black" />
<circle cx="57.295" cy="-466.957" r="8.501" fill="Black" stroke="Black" />
<circle cx="-486.605" cy="406.957" r="10.652" fill="Black" stroke="Black" />
<circle cx="-477.64" cy="176.38" r="15.416" fill="Black" stroke="Black" />
<circle cx="-175.17" cy="-203.102" r="8.825" fill="Black" stroke="Black" />
<circle cx="256.472" cy="360.989" r="13.94" fill="Black" stroke="Black" />
<circle cx="276.792" cy="-175.871" r="15.787" fill="Black" stroke="Black" />
<circle cx="411.182" cy="-486.282" r="19.694" fill="Black" stroke="Black" />
<circle cx="285.329" cy="206.724" r="8.553" fill="Black" stroke="Black" />
<circle cx="-40.717" cy="-245.739" r="11.996" fill="Black" stroke="Black" />
<circle cx="-104.495" cy="367.324" r="12.911" fill="Black" stroke="Black" />
<circle cx="-47.927" cy="-121.478" r="8.043" fill="Black" stroke="Black" />
<circle cx="-180.885" cy="-36.462" r="10.454" fill="Black" stroke="Black" />
<circle cx="193.344" cy="-405.06" r="24.913" fill="Black" stroke="Black" />
<circle cx="-80.692" cy="137.487" r="13.663" fill="Black" stroke="Black" />
<circle cx="-439.381" cy="-399.996" r="11.19" fill="Black" stroke="Black" />
<circle cx="394.286" cy="473.944" r="25.792" fill="Black" stroke="Black" />
<circle cx="-410.443" cy="-12.242" r="20.71" fill="Black" stroke="Black" />
<circle cx="-285.133" cy="-273.097" r="10.62" fill="Black" stroke="Black" />
<circle cx="-350.383" cy="-492.637" r="20.295" fill="Black" stroke="Black" />
<circle cx="-101.287" cy="-353.076" r="9.943" fill="Black" stroke="Black" />
<circle cx="469.567" cy="107.413" r="21.633" fill="Black" stroke="Black" />
<circle cx="-300.795" cy="-25.595" r="12.762" fill="Black" stroke="Black" />
<circle cx="445.112" cy="-134.854" r="22.928" fill="Black" stroke="Black" />
<circle cx="142.189" cy="453.543" r="23.358" fill="Black" stroke="Black" />
<circle cx="161.973" cy="200.13" r="17.818" fill="Black" stroke="Black" />
<circle cx="-27.468" cy="476.664" r="9.343" fill="Black" stroke="Black" />
<circle cx="-453.458" cy="-291.797" r="15.844" fill="Black" stroke="Black" />
<circle cx="-161.537" cy="476.679" r="22.862" fill="Black" stroke="Black" />
<circle cx="463.708" cy="-238.047" r="8.346" fill="Black" stroke="Black" />
<circle cx="-430.771" cy="305.86" r="10.816" fill="Black" stroke="Black" />
<circle cx="-368.436" cy="150.517" r="22.764" fill="Black" stroke="Black" />
<circle cx="217.356" cy="94.848" r="27.525" fill="Black" stroke="Black" />
<circle cx="288.161" cy="497.372" r="9.874" fill="Black" stroke="Black" />
<circle cx="-211.861" cy="288.11" r="18.422" fill="Black" stroke="Black" />
<circle cx="-57.97" cy="34.67" r="18.013" fill="Black" stroke="Black" />
<circle cx="-310.308" cy="248.085" r="10.009" fill="Black" stroke="Black" />
<circle cx="-215.947" cy="-380.294" r="22.018" fill="Black" stroke="Black" />
<circle cx="39.754" cy="223.623" r="23.391" fill="Black" stroke="Black" />
<circle cx="99.171" cy="-80.776" r="14.531" fill="Black" stroke="Black" />
<circle cx="-222.75" cy="-305.515" r="7.873" fill="Black" stroke="Black" />
<circle cx="320.627" cy="123.792" r="17.295" fill="Black" stroke="Black" />
<circle cx="470.371" cy="-397.197" r="9.206" fill="Black" stroke="Black" />
<circle cx="243.285" cy="-97.354" r="20.326" fill="Black" stroke="Black" />
<circle cx="397.408" cy="195.394" r="23.445" fill="Black" stroke="Black" />
<circle cx="120.11" cy="-338.393" r="15.885" fill="Black" stroke="Black" />
<circle cx="-149.857" cy="182.001" r="16.464" fill="Black" stroke="Black" />
<circle cx="-331.16" cy="-197.631" r="15.846" fill="Black" stroke="Black" />
<circle cx="-437.729" cy="110.062" r="15.29" fill="Black" stroke="Black" />
<circle cx="-487.64" cy="40.083" r="12.546" fill="Black" stroke="Black" />
<circle cx="-324.223" cy="483.909" r="17.943" fill="Black" stroke="Black" />
<circle cx="-340.153" cy="-115.642" r="28.382" fill="Black" stroke="Black" />
<circle cx="33.462" cy="415.832" r="14.084" fill="Black" stroke="Black" />
<circle cx="-3.71" cy="-486.538" r="16.094" fill="Black" stroke="Black" />
<circle cx="159.225" cy="-33.74" r="17.57" fill="Black" stroke="Black" />
<circle cx="440.724" cy="-41.068" r="13.183" fill="Black" stroke="Black" />
<circle cx="170.428" cy="-157.966" r="21.967" fill="Black" stroke="Black" />
<circle cx="383.71" cy="364.316" r="21.325" fill="Black" stroke="Black" />
<circle cx="45.465" cy="-268.348" r="13.761" fill="Black" stroke="Black" />
<circle cx="-396.363" cy="437.991" r="14.6" fill="Black" stroke="Black" />
<circle cx="102.597" cy="136.279" r="10.164" fill="Black" stroke="Black" />
<circle cx="-3.04" cy="321.144" r="11.343" fill="Black" stroke="Black" />
<circle cx="-305.376" cy="-363.526" r="20.435" fill="Black" stroke="Black" />
<circle cx="299.171" cy="417.759" r="23.535" fill="Black" stroke="Black" />
<circle cx="271.568" cy="-253.278" r="15.258" fill="Black" stroke="Black" />
<circle cx="-348.183" cy="325.45" r="10.457" fill="Black" stroke="Black" />
<circle cx="-172.848" cy="54.732" r="24.771" fill="Black" stroke="Black" />
<circle cx="155.144" cy="47.653" r="14.864" fill="Black" stroke="Black" />
<circle cx="378.476" cy="-166.477" r="17.592" fill="Black" stroke="Black" />
<circle cx="-100.937" cy="-64.881" r="27.363" fill="Black" stroke="Black" />
<circle cx="387.43" cy="47.855" r="16.212" fill="Black" stroke="Black" />
<circle cx="-373.414" cy="47.657" r="7.873" fill="Black" stroke="Black" />
<circle cx="34.354" cy="-370.209" r="9.701" fill="Black" stroke="Black" />
<circle cx="-258.645" cy="-164.399" r="24.168" fill="Black" stroke="Black" />
<circle cx="-104.947" cy="-498.767" r="8.08" fill="Black" stroke="Black" />
<circle cx="395.704" cy="-233.557" r="19.626" fill="Black" stroke="Black" />
<circle cx="-248.537" cy="400.613" r="14.182" fill="Black" stroke="Black" />
<circle cx="-29.231" cy="-340.226" r="17.342" fill="Black" stroke="Black" />
<circle cx="-245.041" cy="28.389" r="11.555" fill="Black" stroke="Black" />
<circle cx="-402.022" cy="-239.563" r="23.46" fill="Black" stroke="Black" />
<circle cx="162.623" cy="122.807" r="18.924" fill="Black" stroke="Black" />
<circle cx="197.854" cy="-70.149" r="21.417" fill="Black" stroke="Black" />
<circle cx="34.605" cy="-138.191" r="13.439" fill="Black" stroke="Black" />
<circle cx="198.523" cy="-496.473" r="8.182" fill="Black" stroke="Black" />
<circle cx="120.653" cy="-413.646" r="15.073" fill="Black" stroke="Black" />
<circle cx="475.163" cy="344.743" r="12.137" fill="Black" stroke="Black" />
<circle cx="188.447" cy="267.486" r="13.171" fill="Black" stroke="Black" />
<circle cx="250.266" cy="261.94" r="9.167" fill="Black" stroke="Black" />
<circle cx="405.902" cy="-418.221" r="28.03" fill="Black" stroke="Black" />
<circle cx="473.967" cy="176.762" r="7.843" fill="Black" stroke="Black" />
<circle cx="134.888" cy="386.809" r="22.617" fill="Black" stroke="Black" />
<circle cx="-366.256" cy="206.467" r="16.806" fill="Black" stroke="Black" />
<circle cx="85.88" cy="-167.652" r="10.445" fill="Black" stroke="Black" />
<circle cx="332.712" cy="-83.674" r="23.828" fill="Black" stroke="Black" />
<circle cx="-463.567" cy="-44.84" r="15.846" fill="Black" stroke="Black" />
<circle cx="-220.275" cy="148.506" r="25.58" fill="Black" stroke="Black" />
<circle cx="-270.737" cy="326.937" r="9.792" fill="Black" stroke="Black" />
<circle cx="244.683" cy="-335.079" r="19.732" fill="Black" stroke="Black" />
<circle cx="-117.435" cy="-411.315" r="12.161" fill="Black" stroke="Black" />
<circle cx="337.224" cy="315.179" r="12.097" fill="Black" stroke="Black" />
<circle cx="83.02" cy="198.288" r="18.43" fill="Black" stroke="Black" />
<circle cx="333.493" cy="-453.784" r="27.339" fill="Black" stroke="Black" />
<circle cx="-125.596" cy="-260.323" r="14.041" fill="Black" stroke="Black" />
<circle cx="-431.874" cy="377.827" r="21.138" fill="Black" stroke="Black" />
<circle cx="113.891" cy="270.581" r="10.856" fill="Black" stroke="Black" />
<circle cx="404.806" cy="312.528" r="15.651" fill="Black" stroke="Black" />
<circle cx="107.395" cy="-475.358" r="13.144" fill="Black" stroke="Black" />
<circle cx="231.37" cy="-440.922" r="7.631" fill="Black" stroke="Black" />
<circle cx="481.288" cy="19.021" r="12.826" fill="Black" stroke="Black" />
<circle cx="224.54" cy="308.64" r="22.139" fill="Black" stroke="Black" />
<circle cx="-228.826" cy="229.27" r="7.876" fill="Black" stroke="Black" />
<circle cx="-477.744" cy="244.584" r="22.936" fill="Black" stroke="Black" />
<circle cx="-193.567" cy="-101.924" r="18.488" fill="Black" stroke="Black" />
<circle cx="-388.749" cy="-317.126" r="7.5" fill="Black" stroke="Black" />
<circle cx="385.203" cy="-0.485" r="18.395" fill="Black" stroke="Black" />
<circle cx="-23.806" cy="-31.947" r="20.077" fill="Black" stroke="Black" />
<circle cx="491.409" cy="-164.503" r="20.746" fill="Black" stroke="Black" />
<circle cx="-131.333" cy="135.034" r="13.03" fill="Black" stroke="Black" />
<circle cx="-65.28" cy="305.324" r="22.585" fill="Black" stroke="Black" />
<circle cx="-78.249" cy="-281.592" r="23.486" fill="Black" stroke="Black" />
<circle cx="-123.388" cy="60.777" r="23.833" fill="Black" stroke="Black" />
<circle cx="-288.375" cy="146.618" r="9.394" fill="Black" stroke="Black" />
<circle cx="391.538" cy="-87.368" r="8.353" fill="Black" stroke="Black" />
<circle cx="284.964" cy="-420.371" r="16.029" fill="Black" stroke="Black" />
<circle cx="-333.908" cy="-315.912" r="24.242" fill="Black" stroke="Black" />
<circle cx="-7.136" cy="186.196" r="12.618" fill="Black" stroke="Black" />
<circle cx="178.477" cy="359.268" r="9.515" fill="Black" stroke="Black" />
<circle cx="-294.092" cy="-443.244" r="7.716" fill="Black" stroke="Black" />
<circle cx="-19.667" cy="-402.065" r="19.921" fill="Black" stroke="Black" />
<circle cx="-297.24" cy="434.231" r="11.909" fill="Black" stroke="Black" />
<circle cx="353.638" cy="-272.777" r="8.056" fill="Black" stroke="Black" />
<circle cx="21.168" cy="138.088" r="7.517" fill="Black" stroke="Black" />
<circle cx="-315.267" cy="41.144" r="24.251" fill="Black" stroke="Black" />
<circle cx="-152.271" cy="-361.27" r="13.138" fill="Black" stroke="Black" />
<circle cx="-248.59" cy="-406.319" r="15.006" fill="Black" stroke="Black" />
<circle cx="-5.907" cy="42.047" r="18.178" fill="Black" stroke="Black" />
<circle cx="-100.921" cy="-185.419" r="12.574" fill="Black" stroke="Black" />
<circle cx="460.049" cy="-335.988" r="22.563" fill="Black" stroke="Black" />
<circle cx="-170.765" cy="362.167" r="9.959" fill="Black" stroke="Black" />
<circle cx="-343.29" cy="100.893" r="10.834" fill="Black" stroke="Black" />
<circle cx="-201.109" cy="19.032" r="15.716" fill="Black" stroke="Black" />
<circle cx="101.991" cy="-265.18" r="26.475" fill="Black" stroke="Black" />
<circle cx="-135.249" cy="-109.061" r="18.403" fill="Black" stroke="Black" />
<circle cx="337.827" cy="-214.624" r="24.421" fill="Black" stroke="Black" />
<circle cx="-68.245" cy="-417.037" r="10.058" fill="Black" stroke="Black" />
<circle cx="479.587" cy="-485.899" r="20.104" fill="Black" stroke="Black" />
<circle cx="-497.668" cy="472.65" r="11.753" fill="Black" stroke="Black" />
<circle cx="278.299" cy="-297.932" r="27.031" fill="Black" stroke="Black" />
<circle cx="-106.631" cy="433.66" r="13.298" fill="Black" stroke="Black" />
<circle cx="-25.59" cy="399.714" r="7.913" fill="Black" stroke="Black" />
<circle cx="248.127" cy="-23.375" r="12.327" fill="Black" stroke="Black" />
<circle cx="440.61" cy="213.192" r="14.493" fill="Black" stroke="Black" />
<circle cx="229.84" cy="159.247" r="14.813" fill="Black" stroke="Black" />
<circle cx="80.221" cy="419.756" r="8.851" fill="Black" stroke="Black" />
<circle cx="-343.117" cy="419.03" r="13.459" fill="Black" stroke="Black" />
<circle cx="344.904" cy="-117.364" r="17.224" fill="Black" stroke="Black" />
<circle cx="348.006" cy="246.641" r="15.813" fill="Black" stroke="Black" />
<circle cx="-498.378" cy="309.768" r="26.929" fill="Black" stroke="Black" />
<circle cx="458.369" cy="-195.098" r="8.829" fill="Black" stroke="Black" />
<circle cx="334.318" cy="475.656" r="10.551" fill="Black" stroke="Black" />
<circle cx="-349.825" cy="-416.231" r="11.522" fill="Black" stroke="Black" />
<circle cx="-264.175" cy="-370.527" r="23.909" fill="Black" stroke="Black" />
<circle cx="-385.38" cy="-171.897" r="23.221" fill="Black" stroke="Black" />
<circle cx="-151.541" cy="250.389" r="11.227" fill="Black" stroke="Black" />
<circle cx="-226.674" cy="468.254" r="23.695" fill="Black" stroke="Black" />
<circle cx="-210.596" cy="-244.706" r="8.771" fill="Black" stroke="Black" />
<circle cx="459.892" cy="142.161" r="10.09" fill="Black" stroke="Black" />
<circle cx="496.842" cy="269.363" r="19.546" fill="Black" stroke="Black" />
<circle cx="-182.186" cy="424.337" r="11.491" fill="Black" stroke="Black" />
<circle cx="70.77" cy="294.693" r="18.524" fill="Black" stroke="Black" />
<circle cx="334.974" cy="-42.072" r="17.024" fill="Black" stroke="Black" />
<circle cx="-489.838" cy="-114.691" r="11.067" fill="Black" stroke="Black" />
<circle cx="255.695" cy="-384.787" r="22.992" fill="Black" stroke="Black" />
<circle cx="-428.679" cy="495.764" r="18.778" fill="Black" stroke="Black" />
<circle cx="-64.298" cy="-487.659" r="25.603" fill="Black" stroke="Black" />
<circle cx="73.342" cy="-223.311" r="8.281" fill="Black" stroke="Black" />
<circle cx="-275.735" cy="-227.412" r="20.248" fill="Black" stroke="Black" />
<circle cx="300.203" cy="261.273" r="22.813" fill="Black" stroke="Black" />
<circle cx="-117.082" cy="-136.068" r="23.1" fill="Black" stroke="Black" />
<circle cx="-498.564" cy="-172.486" r="10.808" fill="Black" stroke="Black" />
<circle cx="-13.622" cy="-74.025" r="17.29" fill="Black" stroke="Black" />
<circle cx="356.533" cy="158.284" r="21.659" fill="Black" stroke="Black" />
<circle cx="52.473" cy="474.233" r="13.759" fill="Black" stroke="Black" />
<circle cx="393.748" cy="127.23" r="21.981" fill="Black" stroke="Black" />
<circle cx="-39.701" cy="91.992" r="20.006" fill="Black" stroke="Black" />
<circle cx="-391.589" cy="-125.507" r="16.181" fill="Black" stroke="Black" />
<circle cx="314.051" cy="55.832" r="12.04" fill="Black" stroke="Black" />
<circle cx="-67.9" cy="257.802" r="12.308" fill="Black" stroke="Black" />
<circle cx="-278.931" cy="286.708" r="22.76" fill="Black" stroke="Black" />
<circle cx="-377.974" cy="-389.139" r="10.083" fill="Black" stroke="Black" />
<circle cx="-440.028" cy="55.382" r="15.127" fill="Black" stroke="Black" />
<circle cx="183.012" cy="-350.9" r="8.991" fill="Black" stroke="Black" />
<circle cx="78.638" cy="-35.838" r="8.988" fill="Black" stroke="Black" />
<circle cx="-332.451" cy="186.122" r="12.52" fill="Black" stroke="Black" />
<circle cx="98.152" cy="489.331" r="28.498" fill="Black" stroke="Black" />
<circle cx="53.421" cy="359.166" r="8.462" fill="Black" stroke="Black" />
<circle cx="295.478" cy="-135.916" r="13.667" fill="Black" stroke="Black" />
<circle cx="-253.584" cy="-35.403" r="10.915" fill="Black" stroke="Black" />
<circle cx="-196.933" cy="85.295" r="18.204" fill="Black" stroke="Black" />
<circle cx="310.643" cy="-336.092" r="10.192" fill="Black" stroke="Black" />
<circle cx="-474.007" cy="-344.638" r="8.407" fill="Black" stroke="Black" />
<circle cx="-30.893" cy="-437.708" r="19.219" fill="Black" stroke="Black" />
<circle cx="-211.828" cy="188.96" r="13.029" fill="Black" stroke="Black" />
<circle cx="269.705" cy="445.617" r="12.307" fill="Black" stroke="Black" />
<circle cx="-90.512" cy="490.959" r="17.481" fill="Black" stroke="Black" />
<circle cx="428.23" cy="56.715" r="21.058" fill="Black" stroke="Black" />
<circle cx="204.493" cy="404.47" r="8.018" fill="Black" stroke="Black" />
<circle cx="474.522" cy="302.885" r="9.957" fill="Black" stroke="Black" />
<circle cx="224.46" cy="-360.377" r="13.101" fill="Black" stroke="Black" />
<circle cx="-50.048" cy="212.972" r="9.384" fill="Black" stroke="Black" />
<circle cx="-335.09" cy="-377.318" r="24.123" fill="Black" stroke="Black" />
<circle cx="237.325" cy="-153.124" r="19.189" fill="Black" stroke="Black" />
<circle cx="433.762" cy="-390.341" r="22.613" fill="Black" stroke="Black" />
<circle cx="-16.694" cy="-216.812" r="17.868" fill="Black" stroke="Black" />
<circle cx="-5.565" cy="-154.947" r="22.586" fill="Black" stroke="Black" />
<circle cx="115.048" cy="65.968" r="13.423" fill="Black" stroke="Black" />
<circle cx="145.072" cy="8.401" r="11.167" fill="Black" stroke="Black" />
<circle cx="40.493" cy="-175.931" r="19.035" fill="Black" stroke="Black" />
<circle cx="-316.511" cy="-88.272" r="20.786" fill="Black" stroke="Black" />
<circle cx="-409.711" cy="80.5" r="24.235" fill="Black" stroke="Black" />
<circle cx="-270.159" cy="-121.192" r="13.903" fill="Black" stroke="Black" />
<circle cx="31.289" cy="-424.583" r="19.216" fill="Black" stroke="Black" />
<circle cx="-462.951" cy="318.763" r="11.475" fill="Black" stroke="Black" />
<circle cx="-495.818" cy="126.802" r="19.417" fill="Black" stroke="Black" />
<circle cx="208.16" cy="-313.623" r="22.149" fill="Black" stroke="Black" />
<circle cx="284.886" cy="-55.311" r="9.315" fill="Black" stroke="Black" />
<circle cx="486.694" cy="-122.787" r="24.075" fill="Black" stroke="Black" />
<circle cx="423.079" cy="-4.889" r="15.925" fill="Black" stroke="Black" />
<circle cx="122.079" cy="-192.73" r="15.465" fill="Black" stroke="Black" />
<circle cx="-6.279" cy="-285.506" r="10.04" fill="Black" stroke="Black" />
<circle cx="132.726" cy="219.463" r="17.035" fill="Black" stroke="Black" />
<circle cx="-333.925" cy="363.831" r="12.924" fill="Black" stroke="Black" />
<circle cx="243.85" cy="72.297" r="18.985" fill="Black" stroke="Black" />
<circle cx="367.966" cy="-315.373" r="24.172" fill="Black" stroke="Black" />
<circle cx="310.876" cy="18.054" r="25.379" fill="Black" stroke="Black" />
<circle cx="43.235" cy="-81.269" r="9.535" fill="Black" stroke="Black" />
<circle cx="-72.257" cy="-19.728" r="16.146" fill="Black" stroke="Black" />
<circle cx="495.417" cy="82.812" r="10.032" fill="Black" stroke="Black" />
<circle cx="147.023" cy="-97.019" r="11.164" fill="Black" stroke="Black" />
<circle cx="-256.934" cy="-335.184" r="12.364" fill="Black" stroke="Black" />
<circle cx="-211.254" cy="-181.612" r="11.875" fill="Black" stroke="Black" />
<circle cx="158.008" cy="318.644" r="8.107" fill="Black" stroke="Black" />
<circle cx="195.095" cy="467.446" r="8.994" fill="Black" stroke="Black" />
<circle cx="-430.127" cy="-104.751" r="9.915" fill="Black" stroke="Black" />
<circle cx="-119.574" cy="202.886" r="25.445" fill="Black" stroke="Black" />
<circle cx="352.848" cy="420.097" r="12.627" fill="Black" stroke="Black" />
<circle cx="30.482" cy="292.628" r="19.631" fill="Black" stroke="Black" />
<circle cx="471.048" cy="-48.874" r="9.652" fill="Black" stroke="Black" />
<circle cx="475.254" cy="399.807" r="23.609" fill="Black" stroke="Black" />
<circle cx="23.461" cy="-323.738" r="8.84" fill="Black" stroke="Black" />
<circle cx="154.099" cy="245.171" r="24.077" fill="Black" stroke="Black" />
<circle cx="-230.745" cy="-486.274" r="12.934" fill="Black" stroke="Black" />
<circle cx="-140.412" cy="-313.81" r="9.507" fill="Black" stroke="Black" />
<circle cx="-424.535" cy="238.944" r="9.836" fill="Black" stroke="Black" />
<circle cx="-375.766" cy="368.63" r="9.44" fill="Black" stroke="Black" />
<circle cx="252.102" cy="216.621" r="18.48" fill="Black" stroke="Black" />
<circle cx="-341.72" cy="-40.794" r="12.893" fill="Black" stroke="Black" />
<circle cx="437.979" cy="331.07" r="13.572" fill="Black" stroke="Black" />
<circle cx="-274.193" cy="495.422" r="11.955" fill="Black" stroke="Black" />
<circle cx="321.418" cy="214.636" r="11.129" fill="Black" stroke="Black" />
<circle cx="45.535" cy="182.323" r="16.627" fill="Black" stroke="Black" />
<circle cx="-260.611" cy="256.412" r="12.176" fill="Black" stroke="Black" />
<circle cx="365.44" cy="288.625" r="7.737" fill="Black" stroke="Black" />
<circle cx="208.896" cy="205.863" r="22.402" fill="Black" stroke="Black" />
<circle cx="-4.751" cy="354.719" r="15.698" fill="Black" stroke="Black" />
<circle cx="-101.189" cy="24.442" r="13.381" fill="Black" stroke="Black" />
<circle cx="300.441" cy="308.321" r="12.232" fill="Black" stroke="Black" />
<circle cx="-338.937" cy="247.605" r="8.509" fill="Black" stroke="Black" />
<circle cx="-334.104" cy="-252.858" r="11.416" fill="Black" stroke="Black" />
<circle cx="186.796" cy="-435.041" r="26.488" fill="Black" stroke="Black" />
<circle cx="271.38" cy="105.847" r="15.415" fill="Black" stroke="Black" />
<circle cx="431.73" cy="-87.891" r="20.804" fill="Black" stroke="Black" />
<circle cx="351.429" cy="32.592" r="17.682" fill="Black" stroke="Black" />
<circle cx="-76.008" cy="84.915" r="19.953" fill="Black" stroke="Black" />
<circle cx="-120.776" cy="99.407" r="24.766" fill="Black" stroke="Black" />
<circle cx="-48.848" cy="165.416" r="20.057" fill="Black" stroke="Black" />
<circle cx="-173.98" cy="121.42" r="18.451" fill="Black" stroke="Black" />
<circle cx="-311.818" cy="-219.948" r="7.941" fill="Black" stroke="Black" />
<circle cx="134.139" cy="-138.232" r="19.977" fill="Black" stroke="Black" />
<circle cx="147.411" cy="-313.387" r="21.323" fill="Black" stroke="Black" />
<circle cx="-175.576" cy="-428.456" r="16.937" fill="Black" stroke="Black" />
<circle cx="-6.235" cy="426.397" r="13.921" fill="Black" stroke="Black" />
<circle cx="370.621" cy="-470.139" r="22.404" fill="Black" stroke="Black" />
<circle cx="268.157" cy="-213.411" r="8.183" fill="Black" stroke="Black" />
<circle cx="-303.78" cy="-165.944" r="22.891" fill="Black" stroke="Black" />
<circle cx="-28.176" cy="280.286" r="10.355" fill="Black" stroke="Black" />
<circle cx="181.593" cy="-112.74" r="20.519" fill="Black" stroke="Black" />
<circle cx="-183.432" cy="222.97" r="10.378" fill="Black" stroke="Black" />
<circle cx="103.959" cy="368.392" r="18.7" fill="Black" stroke="Black" />
<circle cx="-374.017" cy="252.275" r="16.493" fill="Black" stroke="Black" />
<circle cx="8.16" cy="-388.374" r="16.287" fill="Black" stroke="Black" />
<circle cx="341.326" cy="85.964" r="10.829" fill="Black" stroke="Black" />
<circle cx="-480.602" cy="-261.262" r="11.054" fill="Black" stroke="Black" />
<circle cx="-355.709" cy="-7.647" r="19.385" fill="Black" stroke="Black" />
<circle cx="143.206" cy="172.886" r="11.849" fill="Black" stroke="Black" />
<circle cx="392.969" cy="434.997" r="18.007" fill="Black" stroke="Black" />
<circle cx="-417.463" cy="170.789" r="8.649" fill="Black" stroke="Black" />
<circle cx="-389.29" cy="334.73" r="17.466" fill="Black" stroke="Black" />
<circle cx="-65.223" cy="-147.091" r="9.597" fill="Black" stroke="Black" />
<circle cx="-212.19" cy="369.914" r="19.382" fill="Black" stroke="Black" />
<circle cx="183.021" cy="-274.592" r="19.859" fill="Black" stroke="Black" />
<circle cx="-175.596" cy="-379.406" r="19.82" fill="Black" stroke="Black" />
<circle cx="-418.503" cy="-359.704" r="9.107" fill="Black" stroke="Black" />
<circle cx="340.751" cy="-5.936" r="18.465" fill="Black" stroke="Black" />
<circle cx="-288.75" cy="102.943" r="8.457" fill="Black" stroke="Black" />
<circle cx="249.125" cy="-125.436" r="26.867" fill="Black" stroke="Black" />
<circle cx="-392.281" cy="296.452" r="24.113" fill="Black" stroke="Black" />
<circle cx="157.697" cy="497.422" r="12.712" fill="Black" stroke="Black" />
<circle cx="-488.604" cy="211.353" r="23.925" fill="Black" stroke="Black" />
<circle cx="405.671" cy="233.617" r="15.616" fill="Black" stroke="Black" />
<circle cx="409.023" cy="-136.338" r="13.401" fill="Black" stroke="Black" />
<circle cx="-444.262" cy="-197.229" r="11.278" fill="Black" stroke="Black" />
<circle cx="359.779" cy="331.073" r="19.061" fill="Black" stroke="Black" />
<circle cx="-485.492" cy="-13.298" r="23.103" fill="Black" stroke="Black" />
<circle cx="102.639" cy="172.792" r="9.518" fill="Black" stroke="Black" />
<circle cx="431.019" cy="-275.871" r="11.778" fill="Black" stroke="Black" />
<circle cx="-314.645" cy="304.002" r="9.024" fill="Black" stroke="Black" />
<circle cx="-143.219" cy="-164.474" r="18.637" fill="Black" stroke="Black" />
<circle cx="8.897" cy="-109.424" r="22.816" fill="Black" stroke="Black" />
<circle cx="-156.408" cy="26.103" r="17.815" fill="Black" stroke="Black" />
<circle cx="213.179" cy="343.489" r="20.832" fill="Black" stroke="Black" />
<circle cx="463.003" cy="254.177" r="25.155" fill="Black" stroke="Black" />
<circle cx="-135.246" cy="-218.957" r="12.467" fill="Black" stroke="Black" />
<circle cx="-166.906" cy="295.332" r="8.536" fill="Black" stroke="Black" />
<circle cx="-230.727" cy="113.72" r="22.229" fill="Black" stroke="Black" />
<circle cx="-110.086" cy="177.103" r="13.971" fill="Black" stroke="Black" />
<circle cx="-327.109" cy="-458.195" r="14.527" fill="Black" stroke="Black" />
<circle cx="-132.829" cy="291.862" r="7.735" fill="Black" stroke="Black" />
<circle cx="-223.411" cy="425.892" r="8.417" fill="Black" stroke="Black" />
<circle cx="495.842" cy="-302.456" r="10.474" fill="Black" stroke="Black" />
<circle cx="384.749" cy="83.034" r="11.118" fill="Black" stroke="Black" />
<circle cx="-301.762" cy="-496.267" r="17.004" fill="Black" stroke="Black" />
<circle cx="-295.195" cy="-317.384" r="11.697" fill="Black" stroke="Black" />
<circle cx="-499.073" cy="-72.011" r="23.612" fill="Black" stroke="Black" />
<circle cx="329.102" cy="-414.575" r="17.861" fill="Black" stroke="Black" />
<circle cx="-71.922" cy="370.073" r="11.162" fill="Black" stroke="Black" />
<circle cx="-497.386" cy="78.391" r="9.688" fill="Black" stroke="Black" />
<circle cx="425.157" cy="386.645" r="15.648" fill="Black" stroke="Black" />
<circle cx="-291.216" cy="55.171" r="23.326" fill="Black" stroke="Black" />
<circle cx="19.181" cy="340.369" r="17.501" fill="Black" stroke="Black" />
<circle cx="-292.35" cy="15.051" r="25.045" fill="Black" stroke="Black" />
<circle cx="348.155" cy="-335.512" r="18.373" fill="Black" stroke="Black" />
<circle cx="10.553" cy="-451.898" r="10.592" fill="Black" stroke="Black" />
<circle cx="-354.462" cy="465.573" r="23.512" fill="Black" stroke="Black" />
<circle cx="-129.218" cy="487.182" r="24.323" fill="Black" stroke="Black" />
<circle cx="301.04" cy="456.932" r="14.457" fill="Black" stroke="Black" />
<circle cx="-477.738" cy="100.641" r="17.009" fill="Black" stroke="Black" />
<circle cx="-152.969" cy="83.814" r="23.421" fill="Black" stroke="Black" />
<circle cx="-416.056" cy="-270.894" r="21.679" fill="Black" stroke="Black" />
<circle cx="287.844" cy="380.877" r="19.163" fill="Black" stroke="Black" />
<circle cx="-47.816" cy="-195.076" r="15.07" fill="Black" stroke="Black" />
<circle cx="-171.72" cy="157.388" r="14.308" fill="Black" stroke="Black" />
<circle cx="77.347" cy="-436.065" r="18.65" fill="Black" stroke="Black" />
<circle cx="-235.921" cy="-200.738" r="18.255" fill="Black" stroke="Black" />
<circle cx="-369.603" cy="-92.068" r="7.809" fill="Black" stroke="Black" />
<circle cx="-148.662" cy="-396.758" r="10.356" fill="Black" stroke="Black" />
<circle cx="-125.778" cy="-41.347" r="12.859" fill="Black" stroke="Black" />
<circle cx="33.298" cy="-47.659" r="11.754" fill="Black" stroke="Black" />
<circle cx="-472.055" cy="-376.822" r="20.684" fill="Black" stroke="Black" />
<circle cx="159.246" cy="-477.525" r="8.77" fill="Black" stroke="Black" />
<circle cx="-55.836" cy="-374.719" r="25.131" fill="Black" stroke="Black" />
<circle cx="-366.378" cy="-343.233" r="26.823" fill="Black" stroke="Black" />
<circle cx="228.236" cy="3.269" r="8.32" fill="Black" stroke="Black" />
<circle cx="103.781" cy="-13.01" r="8.542" fill="Black" stroke="Black" />
<circle cx="76.934" cy="-384.842" r="9.337" fill="Black" stroke="Black" />
<circle cx="299.839" cy="-10.018" r="27.843" fill="Black" stroke="Black" />
<circle cx="131.049" cy="299.476" r="16.512" fill="Black" stroke="Black" />
<circle cx="-92.185" cy="-307.983" r="11.248" fill="Black" stroke="Black" />
<circle cx="446.526" cy="-486.466" r="18.574" fill="Black" stroke="Black" />
<circle cx="-1.337" cy="231.081" r="9.093" fill="Black" stroke="Black" />
<circle cx="-431.632" cy="442.685" r="16.247" fill="Black" stroke="Black" />
<circle cx="-272.727" cy="366.752" r="15.537" fill="Black" stroke="Black" />
<circle cx="329.233" cy="265.988" r="20.812" fill="Black" stroke="Black" />
<circle cx="102.746" cy="466.117" r="26.102" fill="Black" stroke="Black" />
<circle cx="129.267" cy="-165.183" r="23.727" fill="Black" stroke="Black" />
<circle cx="321.372" cy="-300.134" r="17.94" fill="Black" stroke="Black" />
<circle cx="151.077" cy="-192.342" r="11.292" fill="Black" stroke="Black" />
<circle cx="276.717" cy="288.966" r="19.349" fill="Black" stroke="Black" />
<circle cx="270.936" cy="-366.851" r="22.978" fill="Black" stroke="Black" />
<circle cx="-160.59" cy="407.175" r="19.64" fill="Black" stroke="Black" />
<circle cx="10.363" cy="101.351" r="15.896" fill="Black" stroke="Black" />
<circle cx="-65.356" cy="-446.693" r="9.655" fill="Black" stroke="Black" />
<circle cx="156.072" cy="-386.094" r="8.807" fill="Black" stroke="Black" />
<circle cx="18.789" cy="496.573" r="16.096" fill="Black" stroke="Black" />
<circle cx="304.236" cy="-394.032" r="11.005" fill="Black" stroke="Black" />
<circle cx="469.919" cy="-458.315" r="22.829" fill="Black" stroke="Black" />
<circle cx="346.259" cy="380.218" r="14.873" fill="Black" stroke="Black" />
<circle cx="-464.044" cy="490.62" r="22.147" fill="Black" stroke="Black" />
<circle cx="313.864" cy="347.926" r="9.025" fill="Black" stroke="Black" />
<circle cx="-79.48" cy="226.841" r="16.432" fill="Black" stroke="Black" />
<circle cx="-263.032" cy="128.458" r="13.904" fill="Black" stroke="Black" />
<circle cx="319.102" cy="176.306" r="10.804" fill="Black" stroke="Black" />
<circle cx="499.269" cy="-100.857" r="16.782" fill="Black" stroke="Black" />
<circle cx="-100.273" cy="115.342" r="19.216" fill="Black" stroke="Black" />
<circle cx="116.749" cy="-442.491" r="24.134" fill="Black" stroke="Black" />
<circle cx="28.236" cy="-478.648" r="10.11" fill="Black" stroke="Black" />
<circle cx="-30.018" cy="-174.525" r="22.639" fill="Black" stroke="Black" />
<circle cx="-214.182" cy="-447.567" r="21.512" fill="Black" stroke="Black" />
<circle cx="-475.763" cy="360.318" r="7.522" fill="Black" stroke="Black" />
<circle cx="-327.204" cy="76.734" r="17.72" fill="Black" stroke="Black" />
<circle cx="-36.938" cy="365.696" r="7.773" fill="Black" stroke="Black" />
<circle cx="-432.192" cy="12.046" r="15.409" fill="Black" stroke="Black" />
<circle cx="207.874" cy="-120.097" r="19.353" fill="Black" stroke="Black" />
<circle cx="479.671" cy="217.921" r="19.497" fill="Black" stroke="Black" />
<circle cx="-268.112" cy="435.597" r="12.228" fill="Black" stroke="Black" />
<circle cx="-163.079" cy="-91.068" r="18.812" fill="Black" stroke="Black" />
<circle cx="-251.148" cy="156.736" r="8.577" fill="Black" stroke="Black" />
<circle cx="-203.52" cy="55.787" r="16.607" fill="Black" stroke="Black" />
<circle cx="303.029" cy="-211.926" r="12.918" fill="Black" stroke="Black" />
<circle cx="-123.987" cy="407.868" r="20.994" fill="Black" stroke="Black" />
<circle cx="371.556" cy="-402.167" r="10.138" fill="Black" stroke="Black" />
<circle cx="-285.991" cy="-398.573" r="18.454" fill="Black" stroke="Black" />
<circle cx="400.922" cy="-373.056" r="10.014" fill="Black" stroke="Black" />
<circle cx="49.967" cy="132.037" r="10.475" fill="Black" stroke="Black" />
<circle cx="355.571" cy="-437.075" r="24.513" fill="Black" stroke="Black" />
<circle cx="420.758" cy="290.923" r="20.857" fill="Black" stroke="Black" />
<circle cx="9.252" cy="-226.34" r="17.815" fill="Black" stroke="Black" />
<circle cx="-263.261" cy="-2.267" r="21.35" fill="Black" stroke="Black" />
<circle cx="493.651" cy="-329.811" r="19.264" fill="Black" stroke="Black" />
<circle cx="441.763" cy="-308.889" r="12.145" fill="Black" stroke="Black" />
<circle cx="423.041" cy="100.071" r="24.21" fill="Black" stroke="Black" />
<circle cx="288.636" cy="40.435" r="9.356" fill="Black" stroke="Black" />
<circle cx="-234.462" cy="337.764" r="20.728" fill="Black" stroke="Black" />
<circle cx="411.006" cy="-299.985" r="15.627" fill="Black" stroke="Black" />
<circle cx="-51.913" cy="-46.482" r="17.25" fill="Black" stroke="Black" />
<circle cx="488.552" cy="144.453" r="19.089" fill="Black" stroke="Black" />
<circle cx="-451.099" cy="-236.034" r="15.338" fill="Black" stroke="Black" />
<circle cx="-499.465" cy="442.871" r="16.113" fill="Black" stroke="Black" />
<circle cx="133.633" cy="480.182" r="19.795" fill="Black" stroke="Black" />
<circle cx="218.044" cy="499.681" r="11.805" fill="Black" stroke="Black" />
<circle cx="156.524" cy="-427.691" r="21.426" fill="Black" stroke="Black" />
<circle cx="-374.684" cy="173.379" r="25.59" fill="Black" stroke="Black" />
<circle cx="439.661" cy="-245.914" r="15.153" fill="Black" stroke="Black" />
<circle cx="292.999" cy="-91.424" r="7.787" fill="Black" stroke="Black" />
<circle cx="-227.765" cy="-71.149" r="18.208" fill="Black" stroke="Black" />
<circle cx="-25.479" cy="24.474" r="22.02" fill="Black" stroke="Black" />
<circle cx="-32.095" cy="433.939" r="7.803" fill="Black" stroke="Black" />
<circle cx="12.735" cy="-20.696" r="10.211" fill="Black" stroke="Black" />
<circle cx="-34.999" cy="58.786" r="23.508" fill="Black" stroke="Black" />
<circle cx="-446.624" cy="271.799" r="18.237" fill="Black" stroke="Black" />
<circle cx="442.957" cy="-438.916" r="21.469" fill="Black" stroke="Black" />
<circle cx="-417.141" cy="-45.226" r="11.608" fill="Black" stroke="Black" />
<circle cx="-454.274" cy="422.165" r="8.205" fill="Black" stroke="Black" />
<circle cx="-93.796" cy="-386.546" r="25.019" fill="Black" stroke="Black" />
<circle cx="-406.532" cy="265.96" r="19.502" fill="Black" stroke="Black" />
<circle cx="-190.358" cy="-457.861" r="20.952" fill="Black" stroke="Black" />
<circle cx="169.813" cy="-57.224" r="16.485" fill="Black" stroke="Black" />
<circle cx="203.292" cy="55.153" r="17.648" fill="Black" stroke="Black" />
<circle cx="-426.673" cy="-315.337" r="8.855" fill="Black" stroke="Black" />
<circle cx="420.372" cy="159.002" r="20.712" fill="Black" stroke="Black" />
<circle cx="224.041" cy="242.719" r="8.034" fill="Black" stroke="Black" />
<circle cx="191.91" cy="95.286" r="23.974" fill="Black" stroke="Black" />
<circle cx="140.865" cy="-282.536" r="26.559" fill="Black" stroke="Black" />
<circle cx="163.853" cy="428.854" r="18.74" fill="Black" stroke="Black" />
<circle cx="497.686" cy="-252.069" r="19.583" fill="Black" stroke="Black" />
<circle cx="367.478" cy="-56.821" r="11.51" fill="Black" stroke="Black" />
<circle cx="-233.43" cy="-276.126" r="13.245" fill="Black" stroke="Black" />
<circle cx="-203.233" cy="-148.255" r="11.07" fill="Black" stroke="Black" />
<circle cx="241.967" cy="-267.83" r="9.119" fill="Black" stroke="Black" />
<circle cx="457.678" cy="-268.965" r="7.586" fill="Black" stroke="Black" />
<circle cx="-47.052" cy="-274.437" r="21.635" fill="Black" stroke="Black" />
<circle cx="-122.813" cy="340.303" r="7.57" fill="Black" stroke="Black" />
<circle cx="401.051" cy="-264.958" r="11.738" fill="Black" stroke="Black" />
<circle cx="424.892" cy="-221.412" r="22.017" fill="Black" stroke="Black" />
<circle cx="436.059" cy="-355.138" r="20.128" fill="Black" stroke="Black" />
<circle cx="410.104" cy="-55.424" r="10.043" fill="Black" stroke="Black" />
<circle cx="188.565" cy="144.906" r="24.838" fill="Black" stroke="Black" />
<circle cx="-351.538" cy="-220.424" r="8.187" fill="Black" stroke="Black" />
<circle cx="23.132" cy="254.342" r="16.163" fill="Black" stroke="Black" />
<circle cx="-315.855" cy="-278.623" r="19.425" fill="Black" stroke="Black" />
<circle cx="343.396" cy="189.193" r="20.723" fill="Black" stroke="Black" />
<circle cx="14.847" cy="455.948" r="7.564" fill="Black" stroke="Black" />
<circle cx="212.1" cy="27.715" r="9.055" fill="Black" stroke="Black" />
<circle cx="-86.767" cy="-335.991" r="10.123" fill="Black" stroke="Black" />
<circle cx="-138.543" cy="-475.865" r="7.743" fill="Black" stroke="Black" />
<circle cx="245.684" cy="292.392" r="16.876" fill="Black" stroke="Black" />
<circle cx="-360.274" cy="-296.654" r="10.878" fill="Black" stroke="Black" />
<circle cx="-410.417" cy="401.005" r="22.266" fill="Black" stroke="Black" />
<circle cx="38.109" cy="88.323" r="18.188" fill="Black" stroke="Black" />
<circle cx="312.293" cy="88.552" r="12.978" fill="Black" stroke="Black" />
<circle cx="-69.468" cy="-80.216" r="9.765" fill="Black" stroke="Black" />
<circle cx="360.615" cy="-146.898" r="10.331" fill="Black" stroke="Black" />
<circle cx="-171.283" cy="328.958" r="8.432" fill="Black" stroke="Black" />
<circle cx="258.239" cy="415.267" r="7.945" fill="Black" stroke="Black" />
<circle cx="69.695" cy="92.155" r="22.131" fill="Black" stroke="Black" />
<circle cx="-107.252" cy="262.206" r="14.171" fill="Black" stroke="Black" />
<circle cx="105.416" cy="-231.756" r="16.081" fill="Black" stroke="Black" />
<circle cx="-248.703" cy="-233.753" r="23.47" fill="Black" stroke="Black" />
<circle cx="16.243" cy="21.191" r="9.153" fill="Black" stroke="Black" />
<circle cx="179.311" cy="223.736" r="17.747" fill="Black" stroke="Black" />
<circle cx="-191.391" cy="-353.702" r="23.726" fill="Black" stroke="Black" />
<circle cx="-153.661" cy="-185.634" r="14.126" fill="Black" stroke="Black" />
<circle cx="273.211" cy="-127.757" r="21.477" fill="Black" stroke="Black" />
<circle cx="21.555" cy="367.027" r="22.446" fill="Black" stroke="Black" />
<circle cx="220.112" cy="381.474" r="13.054" fill="Black" stroke="Black" />
<circle cx="-381.248" cy="400.068" r="9.521" fill="Black" stroke="Black" />
<circle cx="324.117" cy="-240.141" r="17.91" fill="Black" stroke="Black" />
<circle cx="-422.032" cy="33.281" r="10.794" fill="Black" stroke="Black" />
<circle cx="104.277" cy="-304.778" r="25.568" fill="Black" stroke="Black" />
<circle cx="-57.04" cy="106.072" r="14.205" fill="Black" stroke="Black" />
<circle cx="-312.594" cy="-117.623" r="22.917" fill="Black" stroke="Black" />
<circle cx="-329.148" cy="-145.477" r="25.965" fill="Black" stroke="Black" />
<circle cx="418.695" cy="136.919" r="19.233" fill="Black" stroke="Black" />
<circle cx="-470.24" cy="140.477" r="13.66" fill="Black" stroke="Black" />
<circle cx="56.289" cy="390.679" r="11.77" fill="Black" stroke="Black" />
<circle cx="-253.751" cy="298.265" r="23.88" fill="Black" stroke="Black" />
<circle cx="-285.528" cy="-79.733" r="7.612" fill="Black" stroke="Black" />
<circle cx="73.761" cy="-498.773" r="16.668" fill="Black" stroke="Black" />
<circle cx="-177.569" cy="-320.107" r="11.083" fill="Black" stroke="Black" />
<circle cx="355.864" cy="-189.146" r="23.859" fill="Black" stroke="Black" />
<circle cx="180.306" cy="-242.071" r="9.534" fill="Black" stroke="Black" />
<circle cx="34.241" cy="-399.968" r="19.456" fill="Black" stroke="Black" />
<circle cx="-31.557" cy="-307.467" r="27.601" fill="Black" stroke="Black" />
<circle cx="258.352" cy="-3.405" r="14.374" fill="Black" stroke="Black" />
<circle cx="-377.334" cy="480.603" r="11.239" fill="Black" stroke="Black" />
<circle cx="-84.004" cy="-242.195" r="22.839" fill="Black" stroke="Black" />
<circle cx="-208.788" cy="-328.598" r="14.137" fill="Black" stroke="Black" />
<circle cx="8.534" cy="-173.861" r="22.95" fill="Black" stroke="Black" />
<circle cx="-282.899" cy="-347.047" r="15.772" fill="Black" stroke="Black" />
<circle cx="-57.047" cy="487.613" r="14.386" fill="Black" stroke="Black" />
<circle cx="-259.439" cy="-190.149" r="21.275" fill="Black" stroke="Black" />
<circle cx="467.553" cy="-80.321" r="12.096" fill="Black" stroke="Black" />
<circle cx="-66.435" cy="180.507" r="27.476" fill="Black" stroke="Black" />
<circle cx="386.964" cy="-189.127" r="25.042" fill="Black" stroke="Black" />
<circle cx="258.416" cy="-71.054" r="11.217" fill="Black" stroke="Black" />
<circle cx="-384.872" cy="227.623" r="11.998" fill="Black" stroke="Black" />
<circle cx="86.102" cy="-142.623" r="8.35" fill="Black" stroke="Black" />
<circle cx="-311.326" cy="-414.451" r="12.999" fill="Black" stroke="Black" />
<circle cx="359.724" cy="451.368" r="26.518" fill="Black" stroke="Black" />
<circle cx="-203.099" cy="315.275" r="20.807" fill="Black" stroke="Black" />
<circle cx="-285.204" cy="240.451" r="7.687" fill="Black" stroke="Black" />
<circle cx="230.395" cy="197.427" r="24.386" fill="Black" stroke="Black" />
<circle cx="-20.502" cy="148.48" r="7.899" fill="Black" stroke="Black" />
<circle cx="214.873" cy="124.356" r="24.934" fill="Black" stroke="Black" />
<circle cx="-309.359" cy="276.985" r="12.954" fill="Black" stroke="Black" />
<circle cx="270.978" cy="475.402" r="7.792" fill="Black" stroke="Black" />
<circle cx="497.884" cy="247.875" r="20.435" fill="Black" stroke="Black" />
<circle cx="389.607" cy="280.896" r="7.869" fill="Black" stroke="Black" />
<circle cx="107.609" cy="37.987" r="8.065" fill="Black" stroke="Black" />
<circle cx="-309.791" cy="125.825" r="7.6" fill="Black" stroke="Black" />
<circle cx="-364.955" cy="285.019" r="14.721" fill="Black" stroke="Black" />
<circle cx="94.537" cy="-411.495" r="14.118" fill="Black" stroke="Black" />
<circle cx="-145.435" cy="212.201" r="27.777" fill="Black" stroke="Black" />
<circle cx="-223.49" cy="-408.037" r="18.475" fill="Black" stroke="Black" />
<circle cx="-43.703" cy="-17.28" r="22.052" fill="Black" stroke="Black" />
<circle cx="143.852" cy="-60.93" r="22.353" fill="Black" stroke="Black" />
<circle cx="-317.7" cy="-330.399" r="20.066" fill="Black" stroke="Black" />
<circle cx="185.562" cy="-465.36" r="15.18" fill="Black" stroke="Black" />
<circle cx="-416.563" cy="-179.135" r="22.286" fill="Black" stroke="Black" />
<circle cx="-175.075" cy="-120.03" r="10.433" fill="Black" stroke="Black" />
<circle cx="480.207" cy="-428.876" r="18.405" fill="Black" stroke="Black" />
<circle cx="389.551" cy="154.21" r="23.685" fill="Black" stroke="Black" />
<circle cx="-474.561" cy="-72.243" r="21.001" fill="Black" stroke="Black" />
<circle cx="415.748" cy="-168.225" r="17.993" fill="Black" stroke="Black" />
<circle cx="-98.679" cy="-266.767" r="23.727" fill="Black" stroke="Black" />
<circle cx="235.063" cy="343.197" r="23.15" fill="Black" stroke="Black" />
<circle cx="150.541" cy="225.185" r="20.92" fill="Black" stroke="Black" />
<circle cx="-210.258" cy="-36.355" r="20.501" fill="Black" stroke="Black" />
<circle cx="-457.629" cy="394.63" r="11.031" fill="Black" stroke="Black" />
<circle cx="-422.838" cy="197.196" r="8.214" fill="Black" stroke="Black" />
<circle cx="-473.338" cy="287.684" r="26.057" fill="Black" stroke="Black" />
<circle cx="-496.766" cy="339.614" r="17.0" fill="Black" stroke="Black" />
<circle cx="-281.955" cy="-196.592" r="18.008" fill="Black" stroke="Black" />
<circle cx="-147.989" cy="455.1" r="21.142" fill="Black" stroke="Black" />
<circle cx="-299.93" cy="-4.148" r="21.152" fill="Black" stroke="Black" />
<circle cx="95.836" cy="-53.228" r="21.328" fill="Black" stroke="Black" />
<circle cx="261.878" cy="319.309" r="14.49" fill="Black" stroke="Black" />
<circle cx="280.131" cy="339.275" r="8.295" fill="Black" stroke="Black" />
<circle cx="-186.722" cy="-73.471" r="26.738" fill="Black" stroke="Black" />
<circle cx="22.423" cy="-251.69" r="9.979" fill="Black" stroke="Black" />
<circle cx="-271.345" cy="466.472" r="8.783" fill="Black" stroke="Black" />
<circle cx="-272.65" cy="30.03" r="21.609" fill="Black" stroke="Black" />
<circle cx="-307.52" cy="-247.28" r="10.588" fill="Black" stroke="Black" />
<circle cx="61.189" cy="-56.506" r="11.005" fill="Black" stroke="Black" />
<circle cx="-59.756" cy="-343.697" r="20.973" fill="Black" stroke="Black" />
<circle cx="-486.51" cy="-306.235" r="9.586" fill="Black" stroke="Black" />
<circle cx="116.181" cy="107.225" r="15.891" fill="Black" stroke="Black" />
<circle cx="-363.214" cy="-146.973" r="23.353" fill="Black" stroke="Black" />
<circle cx="-474.86" cy="459.877" r="12.861" fill="Black" stroke="Black" />
<circle cx="378.718" cy="233.168" r="14.614" fill="Black" stroke="Black" />
<circle cx="-147.826" cy="-280.632" r="7.91" fill="Black" stroke="Black" />
<circle cx="-129.203" cy="18.588" r="11.766" fill="Black" stroke="Black" />
<circle cx="305.486" cy="233.486" r="11.391" fill="Black" stroke="Black" />
<circle cx="67.99" cy="146.634" r="8.18" fill="Black" stroke="Black" />
<circle cx="148.182" cy="-340.893" r="14.609" fill="Black" stroke="Black" />
<circle cx="-86.58" cy="460.301" r="10.924" fill="Black" stroke="Black" />
<circle cx="-235.757" cy="-123.198" r="14.807" fill="Black" stroke="Black" />
<circle cx="-445.496" cy="140.055" r="9.56" fill="Black" stroke="Black" />
<circle cx="190.796" cy="-42.464" r="9.708" fill="Black" stroke="Black" />
<circle cx="178.536" cy="-89.382" r="21.309" fill="Black" stroke="Black" />
<circle cx="-326.237" cy="452.772" r="18.711" fill="Black" stroke="Black" />
<circle cx="450.0" cy="450.0" r="15.0" fill="Red" stroke="Red" />
<circle cx="-450.0" cy="-450.0" r="1.0" fill="Gray" stroke="Gray" />
</svg>